<svg width="104" height="100" viewBox="0 0 104 100" fill="none" xmlns="http://www.w3.org/2000/svg">
<path d="M29.1606 74.1536C23.1347 75.1247 19.5605 76.7269 15.1052 71.8165L14.9038 71.4049C14.1996 69.9577 13.8011 68.7095 13.5948 67.4296L9.45885 41.7651L5.23949 73.719C4.7876 78.3917 8.21301 82.6087 12.9029 83.1235L73.6207 89.3313C74.3584 89.4014 75.102 89.3776 75.8337 89.2603C79.5825 88.6562 82.607 85.6161 82.9763 81.7944L83.8049 65.3474L29.1606 74.1536Z" fill="#E2E1E6"/>
<path d="M20.3396 77.8523L20.3528 77.854L20.366 77.8554C20.7154 77.8945 21.2066 77.9465 21.7261 77.9465H80.8236C86.8147 77.9465 91.6898 73.0714 91.6898 67.0803V23.2334C91.6898 17.2423 86.8147 12.3672 80.8236 12.3672H21.7261C15.735 12.3672 10.8599 17.2423 10.8599 23.2334V67.0803C10.8599 67.0915 10.8599 67.1035 10.8598 67.1161C10.8596 67.3065 10.8591 67.6511 10.912 68.0288C11.3383 73.1121 15.2816 77.2268 20.3396 77.8523Z" fill="#E2E1E6" stroke="white" stroke-width="4.57516"/>
<path d="M39.8356 33.7188C39.8356 37.9301 36.4219 41.3445 32.2107 41.3445C27.9989 41.3445 24.585 37.9301 24.585 33.7188C24.585 29.5076 27.9989 26.0931 32.2107 26.0931C36.4219 26.0931 39.8356 29.5078 39.8356 33.7188Z" fill="#B6B5BA"/>
<path d="M89.401 56.366V67.0804C89.401 71.8079 85.5501 75.659 80.8224 75.659H21.7249C21.3437 75.659 20.9626 75.6204 20.6191 75.5822L59.8903 36.3115C62.4832 33.7186 66.7531 33.7186 69.3458 36.3115L89.401 56.366Z" fill="#B5B6BA"/>
<path d="M66.753 75.6588H21.7248C21.3437 75.6588 20.9625 75.6204 20.619 75.582C16.6158 75.0869 13.4898 71.8079 13.1846 67.7665L31.2948 49.6556C33.8877 47.0634 38.1575 47.0634 40.7502 49.6556L66.753 75.6588Z" fill="#C3C7CA"/>
<rect x="69.6357" width="34.3137" height="34.3137" rx="17.1568" fill="#3183FF"/>
<path d="M90.453 9.22651H94.1131C94.2749 9.22651 94.4301 9.29078 94.5445 9.40518C94.6589 9.51958 94.7232 9.67474 94.7232 9.83653V13.4967C94.7232 13.6584 94.7874 13.8136 94.9018 13.928C95.0162 14.0424 95.1714 14.1067 95.3332 14.1067C95.495 14.1067 95.6501 14.0424 95.7645 13.928C95.8789 13.8136 95.9432 13.6584 95.9432 13.4967V9.83653C95.9426 9.35137 95.7495 8.88626 95.4065 8.5432C95.0634 8.20013 94.5983 8.00712 94.1131 8.00647H90.453C90.2912 8.00647 90.1361 8.07074 90.0217 8.18514C89.9073 8.29954 89.843 8.4547 89.843 8.61649C89.843 8.77828 89.9073 8.93344 90.0217 9.04784C90.1361 9.16224 90.2912 9.22651 90.453 9.22651ZM95.3332 20.2069C95.1714 20.2069 95.0162 20.2712 94.9018 20.3856C94.7874 20.5 94.7232 20.6551 94.7232 20.8169V24.477C94.7232 24.6388 94.6589 24.794 94.5445 24.9084C94.4301 25.0228 94.2749 25.0871 94.1131 25.0871H90.453C90.2912 25.0871 90.1361 25.1513 90.0217 25.2657C89.9073 25.3801 89.843 25.5353 89.843 25.6971C89.843 25.8589 89.9073 26.014 90.0217 26.1284C90.1361 26.2428 90.2912 26.3071 90.453 26.3071H94.1131C94.5983 26.3064 95.0634 26.1134 95.4065 25.7704C95.7495 25.4273 95.9426 24.9622 95.9432 24.477V20.8169C95.9432 20.6551 95.8789 20.5 95.7645 20.3856C95.6501 20.2712 95.495 20.2069 95.3332 20.2069ZM79.4726 26.3071H83.1328C83.2946 26.3071 83.4497 26.2428 83.5641 26.1284C83.6785 26.014 83.7428 25.8589 83.7428 25.6971C83.7428 25.5353 83.6785 25.3801 83.5641 25.2657C83.4497 25.1513 83.2946 25.0871 83.1328 25.0871H79.4726C79.3109 25.0871 79.1557 25.0228 79.0413 24.9084C78.9269 24.794 78.8626 24.6388 78.8626 24.477V20.8169C78.8626 20.6551 78.7983 20.5 78.6839 20.3856C78.5695 20.2712 78.4144 20.2069 78.2526 20.2069C78.0908 20.2069 77.9357 20.2712 77.8212 20.3856C77.7068 20.5 77.6426 20.6551 77.6426 20.8169V24.477C77.6432 24.9622 77.8362 25.4273 78.1793 25.7704C78.5224 26.1134 78.9875 26.3064 79.4726 26.3071ZM78.2526 14.1067C78.4144 14.1067 78.5695 14.0424 78.6839 13.928C78.7983 13.8136 78.8626 13.6584 78.8626 13.4967V9.83653C78.8626 9.67474 78.9269 9.51958 79.0413 9.40518C79.1557 9.29078 79.3109 9.22651 79.4726 9.22651H83.1328C83.2946 9.22651 83.4497 9.16224 83.5641 9.04784C83.6785 8.93344 83.7428 8.77828 83.7428 8.61649C83.7428 8.4547 83.6785 8.29954 83.5641 8.18514C83.4497 8.07074 83.2946 8.00647 83.1328 8.00647H79.4726C78.9875 8.00712 78.5224 8.20013 78.1793 8.5432C77.8362 8.88626 77.6432 9.35137 77.6426 9.83653V13.4967C77.6426 13.6584 77.7068 13.8136 77.8212 13.928C77.9357 14.0424 78.0908 14.1067 78.2526 14.1067ZM86.7929 21.4269C87.6374 21.4269 88.463 21.1765 89.1653 20.7073C89.8675 20.2381 90.4148 19.5712 90.738 18.7909C91.0612 18.0106 91.1458 17.152 90.981 16.3237C90.8162 15.4954 90.4095 14.7345 89.8123 14.1373C89.2151 13.5401 88.4543 13.1335 87.626 12.9687C86.7976 12.8039 85.939 12.8885 85.1588 13.2117C84.3785 13.5349 83.7116 14.0822 83.2424 14.7844C82.7732 15.4866 82.5227 16.3122 82.5227 17.1568C82.524 18.2889 82.9743 19.3743 83.7749 20.1748C84.5754 20.9753 85.6608 21.4256 86.7929 21.4269ZM86.7929 14.1067C87.3961 14.1067 87.9859 14.2856 88.4874 14.6207C88.989 14.9559 89.38 15.4322 89.6108 15.9896C89.8417 16.5469 89.9021 17.1602 89.7844 17.7518C89.6667 18.3435 89.3762 18.887 88.9496 19.3135C88.5231 19.7401 87.9796 20.0306 87.3879 20.1483C86.7963 20.266 86.183 20.2056 85.6257 19.9747C85.0683 19.7439 84.592 19.3529 84.2568 18.8513C83.9217 18.3497 83.7428 17.76 83.7428 17.1568C83.7438 16.3481 84.0654 15.5729 84.6372 15.0011C85.209 14.4293 85.9843 14.1076 86.7929 14.1067Z" fill="white"/>
</svg>
